<?xml version="1.0" encoding="UTF-8" standalone="no"?>
<svg
   xmlns:dc="http://purl.org/dc/elements/1.1/"
   xmlns:cc="http://creativecommons.org/ns#"
   xmlns:rdf="http://www.w3.org/1999/02/22-rdf-syntax-ns#"
   xmlns:svg="http://www.w3.org/2000/svg"
   xmlns="http://www.w3.org/2000/svg"
   viewBox="0 0 385.33334 146.66667"
   height="146.66667"
   width="385.33334"
   xml:space="preserve"
   id="svg2"
   version="1.1"><metadata
     id="metadata8"><rdf:RDF><cc:Work
         rdf:about=""><dc:format>image/svg+xml</dc:format><dc:type
           rdf:resource="http://purl.org/dc/dcmitype/StillImage" /></cc:Work></rdf:RDF></metadata><defs
     id="defs6"><clipPath
       id="clipPath20"
       clipPathUnits="userSpaceOnUse"><path
         id="path18"
         d="M 0,0 H 2882.93 V 1097.4 H 0 Z" /></clipPath></defs><g
     transform="matrix(1.3333333,0,0,-1.3333333,0,146.66667)"
     id="g10"><g
       transform="scale(0.1)"
       id="g12"><g
         id="g14"><g
           clip-path="url(#clipPath20)"
           id="g16"><path
             id="path22"
             style="fill:none;stroke:#231f20;stroke-width:5.4000001;stroke-linecap:butt;stroke-linejoin:miter;stroke-miterlimit:10;stroke-dasharray:none;stroke-opacity:1"
             d="M 899.219,1097.4 V 0" /><path
             id="path24"
             style="fill:#140a06;fill-opacity:1;fill-rule:nonzero;stroke:none"
             d="m 183.809,184.898 h -53.86 L 53.4805,293.77 53.5391,184.898 H 0 V 354.23 h 62.3086 l 68.0704,-87.628 -0.109,87.628 h 53.539 V 184.898" /></g></g><path
         id="path26"
         style="fill:#140a06;fill-opacity:1;fill-rule:nonzero;stroke:none"
         d="M 342.051,248.34 H 272.219 V 184.898 H 208.031 V 354.23 H 363.34 V 314 h -91.121 v -27.648 h 69.832 V 248.34" /><path
         id="path28"
         style="fill:#140a06;fill-opacity:1;fill-rule:nonzero;stroke:none"
         d="m 749.891,339.781 -6.43,15.59 c 4.199,1.93 6.277,4.738 6.277,9.449 0,3.45 -1.398,6.668 -4.379,8.508 -2.66,1.801 -6.089,2.211 -9.238,2.211 h -18.152 v -35.758 h 11.101 v 13.66 h 3.43 l 5.219,-13.66 z M 729.07,361.09 v 6.851 h 4.41 c 1.071,0 2.2,0 3.141,-0.48 1.098,-0.563 1.707,-1.699 1.707,-2.902 0,-3.098 -2.848,-3.469 -5.238,-3.469 h -4.02" /><path
         id="path30"
         style="fill:#140a06;fill-opacity:1;fill-rule:nonzero;stroke:none"
         d="m 732.539,323.289 c -18.668,0 -33.848,15.172 -33.848,33.832 0,18.66 15.18,33.828 33.848,33.828 18.66,0 33.84,-15.168 33.84,-33.828 0,-18.66 -15.18,-33.832 -33.84,-33.832 z m 0,63.52 c -16.379,0 -29.699,-13.321 -29.699,-29.688 0,-16.371 13.32,-29.68 29.699,-29.68 16.371,0 29.691,13.309 29.691,29.68 0,16.367 -13.32,29.688 -29.691,29.688" /><path
         id="path32"
         style="fill:#eb1440;fill-opacity:1;fill-rule:nonzero;stroke:none"
         d="m 315.121,746.852 c 1.219,14.476 10.738,49.519 9.938,35.878 -2.09,-26.73 7.871,-48.949 25.929,-71.218 13.09,-17.293 28.332,-36.481 41.66,-62.621 9.661,-18.961 25.122,-43.211 20.704,-50.532 -4.481,-7.359 13.007,17.7 18.839,30.371 9.039,19.661 10.719,32.442 13.09,53.969 2.75,24.891 -9.422,82.75 -2.359,64.153 4.457,-10.731 52.707,-75.731 60.519,-131.75 3.688,-26.59 4.957,-42.481 0,-68.864 -6.281,-33.34 -14.152,-43.238 -35.632,-79.379 -3.918,-6.531 3.929,46.903 5.23,63.129 1.852,21.473 -14,-39.5 -26.437,-63.129 -7.903,-14.949 -12.422,-23.437 -22.293,-37.187 -15.137,-21.152 -48.957,-56.031 -45.278,-48.961 9.41,23.059 7.86,30.359 10.731,41.648 5.238,24.602 4.808,44.532 0.797,72.539 -3.25,22.512 -14.95,48.711 -15.207,56.301 -0.25,17.289 -4.071,-22.898 -7.063,-37.437 -9.18,-44.582 -30.898,-103.461 -29.609,-112.883 0.789,-3.68 -23.282,21.492 -34.309,38.23 -19.441,29.52 -26.711,89.84 -28.019,86.161 -13.09,-23.04 -8.122,-64.692 -7.34,-68.36 1.578,-4.961 -17.262,18.371 -25.133,32.219 -23.68,41.641 -17.301,76.223 -7.328,122.59 5.75,28.011 13.078,37.172 18.84,69.633 2.879,17.828 -15.18,74.648 -3.661,47.437 6.54,-12.82 36.149,-39.539 48.192,-64.687 7.859,-16.512 23.047,-41.653 23.84,-43.993 2.097,-6.289 6.539,18.071 6.539,30.879 0,16.5 -11.781,61.832 -13.09,65.492 -2.09,5.75 -3.09,18.559 -2.09,30.372" /><path
         id="path34"
         style="fill:#eb1440;fill-opacity:1;fill-rule:nonzero;stroke:none"
         d="m 359.898,846.391 c 3.153,-14.563 5.422,-22.75 10.75,-36.68 11.071,-28.891 31.493,-38.68 40.321,-68.371 3.203,-10.68 4.769,-16.918 5.781,-28.012 1.711,-19.457 -6.559,-44.527 -5.781,-49.777 1.301,-8.36 -9.739,19.828 -17.278,31.711 -9.16,14.429 -17.339,20.566 -25.921,35.359 -11.059,19.027 -16.809,30.777 -20.961,52.367 -3.539,18.481 -3.258,29.524 -1.297,48.203 1.769,17.207 9.929,50.278 9.929,43.219 0,-10.738 2.129,-17.211 4.457,-28.019" /><path
         id="path36"
         style="fill:#140a06;fill-opacity:1;fill-rule:nonzero;stroke:none"
         d="m 637.941,994.512 c -82.582,0 -181.691,0 -273.89,0 -0.063,0 -0.121,0 -0.18,0 -92.199,0 -191.312,0 -273.8905,0 -44.3203,0 -89.171906,-27.512 -89.171906,-71.231 0,-144.07 0,-331.57 0,-475.39 0,-43.243 36.152306,-66.25 89.972706,-66.782 51.1597,0 125.2887,0 125.2887,0 v 85.641 c 0,0 -58.832,0 -92.851,0 -18.981,0 -31.1292,15.738 -31.1292,33.012 0,117.859 0,248.808 0,376.617 0,15.992 14.5002,28.801 28.7382,28.801 79.152,0 164.313,0 243.043,0 0.059,0 0.117,0 0.18,0 78.73,0 163.89,0 243.039,0 14.238,0 28.73,-12.809 28.73,-28.801 0,-127.809 0,-258.758 0,-376.617 0,-17.274 -12.14,-33.012 -31.121,-33.012 -34.019,0 -92.847,0 -92.847,0 v -85.641 c 0,0 74.136,0 125.289,0 53.828,0.532 89.968,23.539 89.968,66.782 0,143.82 0,331.32 0,475.39 0,43.719 -44.847,71.231 -89.168,71.231" /><path
         id="path38"
         style="fill:#140a06;fill-opacity:1;fill-rule:nonzero;stroke:none"
         d="M 683.898,354.23 H 614.379 L 547.68,184.898 h 53.539 l 13.16,33.321 h 57.312 l 12.207,-33.321 h 67.321 z m -58.546,-98.992 17.527,49.133 17.531,-49.133 h -35.058" /><path
         id="path40"
         style="fill:#140a06;fill-opacity:1;fill-rule:evenodd;stroke:none"
         d="m 453.66,246.43 v -61.469 h -66.699 v 169.328 h 87.668 c 10.652,0.172 21.461,-0.258 32.422,-1.289 10.961,-1 21.129,-3.539 30.527,-7.578 10.102,-4.82 17.922,-11.113 23.481,-18.891 5.57,-7.781 8.382,-16.301 8.461,-25.562 0.011,-8.11 -1.961,-15.75 -5.911,-22.949 -3.949,-7.192 -9.91,-13.348 -17.879,-18.508 -8.421,-5.192 -17.66,-8.692 -27.75,-10.524 -10.101,-1.816 -20.371,-2.668 -30.808,-2.558 z m 0,36.281 h 17.219 c 5.152,-0.09 10.242,0.18 15.293,0.777 5.039,0.614 9.258,2.09 12.637,4.461 3.382,2.36 5.132,6.129 5.269,11.301 -0.367,7.27 -3.719,11.871 -10.027,13.789 -6.313,1.941 -13.41,2.77 -21.289,2.5 H 453.66 v -32.828" /><path
         id="path42"
         style="fill:#eb1440;fill-opacity:1;fill-rule:nonzero;stroke:none"
         d="m 1073.19,994.422 h 63.26 l 47.28,-92.512 c 7.83,-15.308 11.22,-22.449 19.73,-42.519 h 0.68 v 135.031 h 57.14 V 742.73 h -58.5 L 1147,844.762 c -6.12,11.226 -9.53,17.359 -15.99,32.316 h -0.67 V 742.73 h -57.15 v 251.692" /><path
         id="path44"
         style="fill:#eb1440;fill-opacity:1;fill-rule:nonzero;stroke:none"
         d="m 1396.32,852.93 c -6.12,24.832 -11.22,41.16 -14.97,64.281 h -0.68 c -3.74,-23.461 -9.18,-39.109 -15.64,-64.281 l -4.76,-19.051 h 40.47 z m -59.18,-110.2 h -58.84 l 73.46,252.711 h 61.56 l 73.47,-252.711 h -63.6 l -10.54,42.52 h -64.63 l -10.88,-42.52" /><path
         id="path46"
         style="fill:#eb1440;fill-opacity:1;fill-rule:nonzero;stroke:none"
         d="m 1520.81,941.359 h -57.48 v 53.063 h 178.22 v -53.063 h -57.48 V 742.73 h -63.26 v 198.629" /><path
         id="path48"
         style="fill:#eb1440;fill-opacity:1;fill-rule:nonzero;stroke:none"
         d="m 1661.62,742.73 h 63.2695 V 994.421 H 1661.62 Z" /><path
         id="path50"
         style="fill:#eb1440;fill-opacity:1;fill-rule:nonzero;stroke:none"
         d="m 1894.61,868.57 c 0,50.34 -12.92,76.879 -40.48,76.879 -27.55,0 -40.81,-26.539 -40.81,-76.879 0,-50.332 13.26,-78.558 40.81,-78.558 27.56,0 40.48,28.226 40.48,78.558 z m -144.89,0 c 0,92.852 48.97,130.61 104.41,130.61 55.11,0 104.08,-37.758 104.08,-130.61 0,-92.851 -48.97,-130.601 -104.08,-130.601 -55.44,0 -104.41,37.75 -104.41,130.601" /><path
         id="path52"
         style="fill:#eb1440;fill-opacity:1;fill-rule:nonzero;stroke:none"
         d="m 1981.69,994.422 h 63.26 l 47.28,-92.512 c 7.82,-15.308 11.22,-22.449 19.72,-42.519 h 0.69 v 135.031 h 57.13 V 742.73 h -58.5 l -55.78,102.032 c -6.12,11.226 -9.52,17.359 -15.98,32.316 h -0.68 V 742.73 h -57.14 v 251.692" /><path
         id="path54"
         style="fill:#eb1440;fill-opacity:1;fill-rule:nonzero;stroke:none"
         d="m 2304.81,852.93 c -6.12,24.832 -11.23,41.16 -14.97,64.281 h -0.67 c -3.75,-23.461 -9.19,-39.109 -15.66,-64.281 l -4.75,-19.051 h 40.47 z m -59.18,-110.2 h -58.84 l 73.46,252.711 h 61.57 l 73.46,-252.711 h -63.6 l -10.55,42.52 h -64.62 l -10.88,-42.52" /><path
         id="path56"
         style="fill:#eb1440;fill-opacity:1;fill-rule:nonzero;stroke:none"
         d="m 2411.28,994.422 h 63.26 V 794.09 h 91.83 v -51.36 h -155.09 v 251.692" /><path
         id="path58"
         style="fill:#eb1440;fill-opacity:1;fill-rule:nonzero;stroke:none"
         d="m 1073.19,627.07 h 148.63 v -53.058 h -85.37 V 522.648 H 1197 V 473 h -60.55 v -97.621 h -63.26 V 627.07" /><path
         id="path60"
         style="fill:#eb1440;fill-opacity:1;fill-rule:nonzero;stroke:none"
         d="m 1241.9,375.379 h 63.2617 V 627.07 H 1241.9 Z" /><path
         id="path62"
         style="fill:#eb1440;fill-opacity:1;fill-rule:nonzero;stroke:none"
         d="m 1420.13,508.711 c 21.08,0 31.29,9.18 31.29,34 0,24.148 -10.21,31.969 -31.29,31.969 h -18.71 v -65.969 z m -80.27,118.359 h 81.97 c 55.1,0 89.79,-22.449 89.79,-82.992 0,-31.289 -14.29,-55.437 -38.1,-66.668 l 45.92,-102.031 h -65.3 l -38.78,85.711 h -13.94 v -85.711 h -61.56 V 627.07" /><path
         id="path64"
         style="fill:#eb1440;fill-opacity:1;fill-rule:nonzero;stroke:none"
         d="m 1541.9,627.07 h 152.03 v -53.058 h -88.77 v -43.883 h 63.27 V 480.48 h -63.27 v -53.742 h 92.86 V 375.379 H 1541.9 V 627.07" /><path
         id="path66"
         style="fill:#eb1440;fill-opacity:1;fill-rule:nonzero;stroke:none"
         d="m 1786.8,501.219 c 0,92.851 42.85,130.601 102.03,130.601 58.83,0 82.64,-34.34 89.45,-90.121 l -59.52,-10.551 c -4.77,32.313 -11.91,46.942 -31.97,46.942 -25.85,0 -36.39,-25.512 -36.39,-76.871 0,-51.688 11.22,-78.571 37.07,-78.571 20.41,0 28.56,13.274 34.01,50.352 l 59.52,-9.539 c -8.84,-51.691 -32.31,-92.512 -93.87,-92.512 -59.18,0 -100.33,37.422 -100.33,130.27" /><path
         id="path68"
         style="fill:#eb1440;fill-opacity:1;fill-rule:nonzero;stroke:none"
         d="m 2135.43,501.219 c 0,50.34 -12.92,76.871 -40.47,76.871 -27.55,0 -40.81,-26.531 -40.81,-76.871 0,-50.328 13.26,-78.571 40.81,-78.571 27.55,0 40.47,28.243 40.47,78.571 z m -144.88,0 c 0,92.851 48.97,130.601 104.41,130.601 55.1,0 104.07,-37.75 104.07,-130.601 0,-92.848 -48.97,-130.61 -104.07,-130.61 -55.44,0 -104.41,37.762 -104.41,130.61" /><path
         id="path70"
         style="fill:#eb1440;fill-opacity:1;fill-rule:nonzero;stroke:none"
         d="m 2299.04,427.762 c 39.8,0 50.68,18.359 50.68,74.476 0,53.742 -10.88,71.774 -51.02,71.774 h -12.92 v -146.25 z m -76.52,199.308 h 71.08 c 66.66,0 119.72,-23.468 119.72,-124.832 0,-103.047 -54.07,-126.859 -119.72,-126.859 h -71.08 V 627.07" /><path
         id="path72"
         style="fill:#eb1440;fill-opacity:1;fill-rule:nonzero;stroke:none"
         d="m 2436.46,627.07 h 152.03 v -53.058 h -88.76 v -43.883 h 63.26 V 480.48 h -63.26 v -53.742 h 92.85 V 375.379 H 2436.46 V 627.07" /><path
         id="path74"
         style="fill:#eb1440;fill-opacity:1;fill-rule:nonzero;stroke:none"
         d="m 2601.77,431.16 50.67,25.852 c 10.55,-18.711 27.22,-36.403 49.32,-36.403 17.68,0 26.53,8.512 26.53,21.77 0,16.672 -18.71,24.492 -41.15,33.332 -33.67,13.598 -76.19,29.258 -76.19,82.309 0,44.558 36.05,73.8 85.71,73.8 44.89,0 72.78,-24.14 89.45,-57.808 l -48.64,-26.871 c -10.88,21.089 -24.15,32.988 -42.17,32.988 -14.97,0 -22.45,-8.16 -22.45,-19.051 0,-15.297 16.33,-23.469 37.07,-32.308 34.36,-14.282 80.27,-30.27 80.27,-83.668 0,-38.774 -29.25,-74.493 -88.43,-74.493 -53.06,0 -82.31,25.52 -99.99,60.551" /><path
         id="path76"
         style="fill:#140a06;fill-opacity:1;fill-rule:nonzero;stroke:none"
         d="m 2843.83,598 c 5.83,0 9.43,1.699 9.43,7.031 0,4.969 -3.6,6.848 -9.61,6.848 h -8.23 V 598 Z m -15.27,20.059 h 15.61 c 10.12,0 15.78,-4.457 15.78,-12.688 0,-7.031 -3.6,-10.641 -9.27,-12.18 l 10.47,-19.211 h -7.38 l -9.94,18.348 h -8.41 V 573.98 h -6.86 z m 48.7,-22.809 c 0,19.031 -14.92,34.469 -33.95,34.469 -18.87,0 -33.79,-15.258 -33.79,-34.297 0,-19.211 14.92,-34.481 33.97,-34.481 18.85,0 33.77,15.098 33.77,34.309 z m -73.57,0 c 0,22.301 17.49,39.961 39.8,39.961 22.11,0 39.44,-17.66 39.44,-39.789 0,-22.461 -17.33,-40.133 -39.62,-40.133 -22.13,0 -39.62,17.672 -39.62,39.961" /></g></g></svg>